<svg xmlns="http://www.w3.org/2000/svg" fill="none" viewBox="0 0 115 28" height="28" width="115">
<g clip-path="url(#clip0)">
<path fill="white" d="M51.5965 26.045V2.72479H48.0124C48.0124 2.72479 45.7949 2.48202 44.0238 6.15214C41.8901 10.5934 34.1919 26.045 34.1919 26.045H38.292L47.4824 8.52272V21.261H41.8761L39.6169 26.0593H51.5965V26.045ZM54.4693 2.72479V26.0593H68.6384V21.261H58.5695V2.72479H54.4693ZM79.5302 2.72479V26.0593H75.9461C75.9461 26.0593 73.7287 26.3021 71.9576 22.632C69.8238 18.1764 62.1396 2.72479 62.1396 2.72479H66.2397L75.4301 20.2471V2.72479H79.5302ZM82.6541 2.72479H86.7543V26.0593H82.6541V2.72479ZM89.6411 14.3778C89.6411 7.93722 94.7453 2.71051 101.035 2.71051C105.86 2.71051 110.156 5.82369 111.773 10.4792H107.506C105.4 6.82333 100.798 5.5952 97.2277 7.75157C93.6575 9.90794 92.4582 14.6205 94.564 18.2764C96.6698 21.9322 101.272 23.1604 104.842 21.004C106.474 20.0186 107.687 18.4335 108.231 16.5627H112.234C111.048 22.889 105.079 27.0447 98.9012 25.8308C93.532 24.7741 89.6411 19.9758 89.6411 14.3778Z"></path>
<path fill="white" d="M17.5126 2.72516H32.1419V26.0597H22.7144V21.3756C26.4659 20.9615 29.1714 17.5199 28.7809 13.6927C28.3904 9.86547 25.0155 7.08075 21.278 7.48061C17.5265 7.89474 14.821 11.3364 15.2115 15.1636C15.5462 18.3196 17.903 20.8473 20.9572 21.3328V26.0597H1.78149L17.5126 2.72516Z"></path>
</g>
<defs>
<clipPath id="clip0">
<rect transform="translate(1.78149 2.71051)" fill="white" height="23.3517" width="110.452"></rect>
</clipPath>
</defs>
</svg>
